<svg xmlns="http://www.w3.org/2000/svg" width="34" height="34" class="icon icon-cart" viewBox="0 0 40 40" fill="none">
<g clip-path="url(#clip0_27_217)">
<path d="M9.86005 30.5362C9.86005 32.4487 11.4113 34 13.3238 34C15.2363 34 16.7875 32.4487 16.7875 30.5362C16.7875 28.6238 15.2363 27.0725 13.3238 27.0725C11.4113 27.0725 9.86005 28.6238 9.86005 30.5362ZM14.5244 30.5362C14.5244 31.195 13.9825 31.7369 13.3238 31.7369C12.6651 31.7369 12.1232 31.195 12.1232 30.5362C12.1232 29.8775 12.6651 29.3356 13.3238 29.3356C13.9825 29.3356 14.5244 29.8775 14.5244 30.5362Z" fill="url(#paint0_linear_27_217)"/>
<path d="M22.9819 30.5362C22.9819 32.4487 24.5332 34 26.4456 34C28.3475 34 29.9094 32.4487 29.9094 30.5362C29.9094 28.6238 28.3475 27.0725 26.4456 27.0725C24.5332 27.0725 22.9819 28.6238 22.9819 30.5362ZM27.6356 30.5362C27.6356 31.195 27.1044 31.7369 26.4456 31.7369C25.7763 31.7369 25.245 31.195 25.245 30.5362C25.245 29.8775 25.7763 29.3356 26.4456 29.3356C27.1044 29.3356 27.6356 29.8775 27.6356 30.5362Z" fill="url(#paint1_linear_27_217)"/>
<path d="M1.50881 2.26313H5.04689L9.22251 22.6737C9.59442 24.5012 11.2094 25.8294 13.0794 25.8294H27.3169C29.1763 25.8294 30.8019 24.5012 31.1738 22.6737L33.5432 11.0925C33.7769 9.93434 33.4794 8.73372 32.7356 7.81998C31.9812 6.89561 30.8656 6.375 29.6756 6.375H8.20255L7.08694 0.903104C6.98065 0.382489 6.51314 0 5.97127 0H1.50881C0.89255 0 0.382507 0.509979 0.382507 1.13689C0.382507 1.76372 0.89255 2.26313 1.50881 2.26313ZM15.1619 19.1568V13.0368C15.1619 12.41 15.6613 11.9106 16.2882 11.9106C16.9151 11.9106 17.4251 12.41 17.4251 13.0368V19.1568C17.4251 19.7838 16.9151 20.2937 16.2882 20.2937C15.6613 20.2937 15.1619 19.7838 15.1619 19.1568ZM24.6076 19.1568C24.6076 19.7838 24.0975 20.2937 23.4707 20.2937C22.8438 20.2937 22.3338 19.7838 22.3338 19.1568V13.0368C22.3338 12.41 22.8438 11.9106 23.4707 11.9106C24.0975 11.9106 24.6076 12.41 24.6076 13.0368V19.1568Z" fill="url(#paint2_linear_27_217)"/>
</g>
<defs>
<linearGradient id="paint0_linear_27_217" x1="13.3238" y1="27.0725" x2="13.3238" y2="34" gradientUnits="userSpaceOnUse">
<stop stop-color="#D0A25A"/>
<stop offset="1" stop-color="#B68D4F"/>
</linearGradient>
<linearGradient id="paint1_linear_27_217" x1="26.4456" y1="27.0725" x2="26.4456" y2="34" gradientUnits="userSpaceOnUse">
<stop stop-color="#D0A25A"/>
<stop offset="1" stop-color="#B68D4F"/>
</linearGradient>
<linearGradient id="paint2_linear_27_217" x1="17.0019" y1="0" x2="17.0019" y2="25.8294" gradientUnits="userSpaceOnUse">
<stop stop-color="#D0A25A"/>
<stop offset="1" stop-color="#B68D4F"/>
</linearGradient>
<clipPath id="clip0_27_217">
<rect width="34" height="34" fill="white"/>
</clipPath>
</defs>
</svg>