<svg xmlns="http://www.w3.org/2000/svg" width="108" height="32" viewBox="0 0 108 32" fill="none">
<path d="M1.04 24V23.28L3.12 23.06C3.16 21.78 3.18 19.8533 3.18 17.28V16.16C3.18 13.5467 3.16 11.6067 3.12 10.34L1.04 10.12V9.42H6.98V10.12L4.9 10.34C4.86 11.62 4.84 13.5933 4.84 16.26V17.66C4.84 20.02 4.86 21.8333 4.9 23.1H10.18L10.82 20.02H11.88L11.7 24H1.04ZM20.493 24.32C18.6796 24.32 17.153 23.66 15.913 22.34C14.5663 20.9133 13.893 19.0333 13.893 16.7C13.893 15.18 14.213 13.82 14.853 12.62C15.4396 11.5133 16.2396 10.64 17.253 10C18.253 9.38667 19.333 9.08 20.493 9.08C22.293 9.08 23.8063 9.74 25.033 11.06C26.3663 12.4867 27.033 14.3667 27.033 16.7C27.033 18.22 26.7196 19.58 26.093 20.78C25.5063 21.9 24.7063 22.7733 23.693 23.4C22.7063 24.0133 21.6396 24.32 20.493 24.32ZM20.493 23.44C21.973 23.44 23.133 22.7467 23.973 21.36C24.7196 20.12 25.093 18.5667 25.093 16.7C25.093 14.8333 24.7196 13.28 23.973 12.04C23.133 10.6667 21.973 9.98 20.493 9.98C18.9996 9.98 17.833 10.6667 16.993 12.04C16.233 13.28 15.853 14.8333 15.853 16.7C15.853 18.5667 16.233 20.12 16.993 21.36C17.833 22.7467 18.9996 23.44 20.493 23.44ZM36.5641 24.32C34.4041 24.32 32.6441 23.6067 31.2841 22.18C29.9374 20.7533 29.2641 18.9267 29.2641 16.7C29.2641 14.4867 29.9507 12.6667 31.3241 11.24C32.6974 9.8 34.4641 9.08 36.6241 9.08C38.3041 9.08 39.7574 9.45333 40.9841 10.2L41.0641 13.34H39.9441L39.5041 10.7C38.7041 10.22 37.8041 9.98 36.8041 9.98C35.1374 9.98 33.7974 10.5733 32.7841 11.76C31.7441 12.9733 31.2241 14.6267 31.2241 16.72C31.2241 18.8 31.7241 20.44 32.7241 21.64C33.7374 22.8267 35.1174 23.42 36.8641 23.42C37.7441 23.42 38.6507 23.2333 39.5841 22.86V22.02C39.5841 20.6733 39.5641 19.32 39.5241 17.96L37.1841 17.78V17.06H42.7041V17.78L41.3241 17.92C41.2841 19.24 41.2641 20.6133 41.2641 22.04V23.02C39.6641 23.8867 38.0974 24.32 36.5641 24.32ZM44.0478 24V23.28L46.1278 23.06C46.1678 21.7933 46.1878 19.86 46.1878 17.26V16.16C46.1878 13.56 46.1678 11.62 46.1278 10.34L44.0478 10.12V9.42H49.9878V10.12L47.9078 10.34C47.8678 11.6067 47.8478 13.5467 47.8478 16.16V17.26C47.8478 19.8467 47.8678 21.78 47.9078 23.06L49.9878 23.28V24H44.0478ZM63.5952 24.16L54.6952 11.82L54.7152 23.02L57.0352 23.28V24H51.8952V23.28L53.7752 23.04L53.7952 10.56L53.6152 10.3L51.9752 10.1V9.42H55.0952L63.3752 21L63.3552 10.4L61.0152 10.12V9.42H66.1352V10.12L64.2752 10.38L64.2552 24.16H63.5952Z" fill="white"/>
<g clip-path="url(#clip0_27_96)">
<path d="M92 3.36006C85.0302 3.36006 79.36 9.03031 79.36 16C79.36 20.2381 81.4568 23.9955 84.6673 26.2899V23.4972C84.6673 21.1419 86.5767 19.2326 88.932 19.2326H95.068C97.4234 19.2326 99.3327 21.142 99.3327 23.4972V26.2899C102.543 23.9954 104.64 20.2381 104.64 16C104.64 9.03031 98.9697 3.36006 92 3.36006ZM92 16.6094C89.587 16.6094 87.6238 14.6462 87.6238 12.2332C87.6238 9.82025 89.5869 7.85712 92 7.85712C94.413 7.85712 96.3762 9.82025 96.3762 12.2332C96.3762 14.6462 94.4129 16.6094 92 16.6094Z" fill="url(#paint0_linear_27_96)"/>
<path d="M92 0C83.1634 0 76 7.16337 76 16C76 24.8366 83.1634 32 92 32C100.837 32 108 24.8366 108 16C108 7.16337 100.837 0 92 0ZM92 30.2652C84.1342 30.2652 77.7348 23.8658 77.7348 16C77.7348 8.13419 84.1342 1.73481 92 1.73481C99.8658 1.73481 106.265 8.13419 106.265 16C106.265 23.8658 99.8658 30.2652 92 30.2652Z" fill="url(#paint1_linear_27_96)"/>
</g>
<defs>
<linearGradient id="paint0_linear_27_96" x1="92" y1="3.36006" x2="92" y2="26.2899" gradientUnits="userSpaceOnUse">
<stop stop-color="#D0A25A"/>
<stop offset="1" stop-color="#B68D4F"/>
</linearGradient>
<linearGradient id="paint1_linear_27_96" x1="92" y1="0" x2="92" y2="32" gradientUnits="userSpaceOnUse">
<stop stop-color="#D0A25A"/>
<stop offset="1" stop-color="#B68D4F"/>
</linearGradient>
<clipPath id="clip0_27_96">
<rect width="32" height="32" fill="white" transform="translate(76)"/>
</clipPath>
</defs>
</svg>